<svg 
	xmlns="http://www.w3.org/2000/svg"
	viewBox="0 0 140 80" 
	width="140"
	height="80"
	>
<g>
	<path style="fill:#FFB900;" d="M95.5,18.3l-0.2-0.1C95.2,18.1,95,18,94.8,18c-0.3,0-0.5,0.1-0.7,0.3L82.8,29.6l8.5,8.5l12-12
		L95.5,18.3z"/>
	<path style="fill:#00BCFF;" d="M46,18.3c-0.2-0.2-0.5-0.3-0.7-0.3c-0.2,0-0.4,0-0.5,0.1l-0.2,0.1l-7.8,7.8h0l12,12l8.5-8.5L46,18.3
		z"/>
	<path style="fill:#00BCFF;" d="M94.8,67.1L94.7,67l-14-14l-8.5,8.5l11.3,11.3c1,1,2.1,1.8,3.2,2.5c2.5,1.5,5.3,2.2,8.1,2.2
		c2.8,0,5.6-0.7,8.1-2.2L94.8,67.1z"/>
	<path style="fill:#00BCFF;" d="M127.4,28.9l-13.4-13.4l-7.8-7.8c-0.2-0.2-0.5-0.5-0.7-0.7c-5.3-4.6-12.8-5.2-18.7-1.8
		c-1.1,0.7-2.2,1.5-3.2,2.5L72.2,19l2.6,2.6l5.9,5.9L92,16.2c0.8-0.8,1.8-1.1,2.8-1.1c0.7,0,1.4,0.2,2,0.5l0.1-0.1l8.5,8.5
		l13.4,13.4c0.8,0.8,1.1,1.8,1.1,2.8c0,1-0.4,2.1-1.1,2.8l-11.3,11.3l5,5l3.5,3.5l11.3-11.3v0c3.1-3.1,4.7-7.2,4.7-11.3
		C132,36.1,130.5,32,127.4,28.9z"/>
	<g>
		<path style="fill:#FFB900;" d="M110.4,61.5l-5-5l0,0l-3.5-3.5l-4.5-4.5L81.2,32.2l-8.5-8.5l-2.6-2.6L56.6,7.7
			c-1-1-2.1-1.8-3.2-2.5C47.6,1.8,40,2.4,34.8,7c-0.3,0.2-0.5,0.4-0.7,0.7l-7.8,7.8L12.8,28.9v0C9.7,32,8.1,36.1,8.1,40.2
			c0,4.1,1.6,8.2,4.7,11.3l11.3,11.3l3.5-3.5l5-5L21.3,43c-0.8-0.8-1.1-1.8-1.1-2.8c0-1,0.4-2.1,1.1-2.8l13.4-13.4l8.5-8.5l0.1,0.1
			c1.5-0.9,3.6-0.7,4.8,0.6l11.3,11.3l0,0l2.1,2.1l8.5,8.5l2.1,2.1l0,0l8.5,8.5l16.2,16.2l0,0L97,65l8.4,8.4
			c0.3-0.2,0.5-0.4,0.7-0.7l7.8-7.8L110.4,61.5z"/>
	</g>
	<g>
		<path style="fill:#FFB900;" d="M70.1,42.3L70.1,42.3l-8.5,8.5L45.4,67l-0.1,0.1L40.4,72l-3.2,3.2c2.5,1.5,5.3,2.2,8.1,2.2
			c2.8,0,5.6-0.8,8.1-2.2c1.1-0.7,2.2-1.5,3.2-2.5l13.4-13.4l8.5-8.5L70.1,42.3z"/>
	</g>
	<g>
		<path style="fill:#00BCFF;" d="M59.5,31.7L51,40.2L38.2,53l-3.5,3.5l0,0l-5,5L26.2,65l7.8,7.8c0.2,0.2,0.5,0.5,0.7,0.7l3.5-3.5
			l4.9-4.9l0.1-0.1l16.2-16.2l8.5-8.5L59.5,31.7z"/>
	</g>
</g>
</svg>
