<?xml version="1.0" encoding="utf-8"?>
<!-- Generator: Adobe Illustrator 24.2.3, SVG Export Plug-In . SVG Version: 6.00 Build 0)  -->
<svg version="1.1" id="Layer_1" xmlns="http://www.w3.org/2000/svg" xmlns:xlink="http://www.w3.org/1999/xlink" x="0px" y="0px"
	 viewBox="0 0 100 100" style="enable-background:new 0 0 100 100;" xml:space="preserve">
<g>
	<defs>
		<path id="SVGID_1_" d="M0,0v100h100V0H0z M99,79c0,11-9,20-20,20H21C10,99,1,90,1,79V21C1,10,10,1,21,1h58c11,0,20,9,20,20V79z"/>
	</defs>
	<clipPath id="SVGID_2_">
		<use xlink:href="#SVGID_1_"  style="overflow:visible;"/>
	</clipPath>
	<linearGradient id="SVGID_3_" gradientUnits="userSpaceOnUse" x1="0" y1="50" x2="100" y2="50">
		<stop  offset="0" style="stop-color:#FFFFFF"/>
		<stop  offset="1" style="stop-color:#000000"/>
	</linearGradient>
	<path style="clip-path:url(#SVGID_2_);fill:url(#SVGID_3_);" d="M80,100H20C9,100,0,91,0,80V20C0,9,9,0,20,0h60c11,0,20,9,20,20v60
		C100,91,91,100,80,100z"/>
</g>
</svg>
